<svg width="12" height="12" viewBox="0 0 12 12" fill="none" xmlns="http://www.w3.org/2000/svg">
<circle cx="6" cy="6" r="6" transform="matrix(1 0 0 -1 0 12)" fill="#CDCCCC"/>
<g clip-path="url(#clip0_38_46)">
<path d="M8.74996 4.2975C8.39153 3.95812 7.78121 3.75 7.24996 3.75C6.79558 3.74894 6.35451 3.90332 5.99996 4.1875C5.6528 3.90915 5.2224 3.75512 4.77746 3.75C3.62496 3.73437 2.72059 4.69687 2.74996 5.84968C2.76251 6.34389 2.87296 6.83069 3.07492 7.28192C3.27688 7.73314 3.56633 8.13983 3.92653 8.47843C4.11207 8.65329 4.35752 8.75046 4.61246 8.75H7.35309C7.4892 8.75055 7.62397 8.7231 7.74902 8.66933C7.87407 8.61557 7.98672 8.53666 8.07996 8.4375C8.57528 7.90625 8.74996 7.4 8.74996 7.4C8.22528 7.03968 7.99996 6.43531 7.99996 5.75062C7.99996 5.17875 8.36496 4.66281 8.74996 4.29812V4.2975Z" fill="black" stroke="black" stroke-width="2" stroke-linecap="round" stroke-linejoin="round"/>
<path d="M7.25 2.25H7.21875C6.99697 2.24989 6.78144 2.32351 6.60607 2.45928C6.4307 2.59505 6.30545 2.78526 6.25 3" stroke="black" stroke-width="2" stroke-linecap="round" stroke-linejoin="round"/>
</g>
<defs>
<clipPath id="clip0_38_46">
<rect width="8" height="8" fill="white" transform="translate(2 2)"/>
</clipPath>
</defs>
</svg>
