<svg width="110" height="95" viewBox="0 0 110 95" fill="none" xmlns="http://www.w3.org/2000/svg">
<path d="M8.39688 93.0075C7.74144 93.5255 6.94227 93.857 6.09323 93.9631C5.24419 94.0692 4.38057 93.9454 3.60381 93.6063C2.82705 93.2673 2.16943 92.727 1.70819 92.049C1.24696 91.371 1.00127 90.5834 1 89.7787V5.22756C1 4.10634 1.47411 3.03104 2.31802 2.23822C3.16193 1.4454 4.30653 1 5.5 1H104.5C105.693 1 106.838 1.4454 107.682 2.23822C108.526 3.03104 109 4.10634 109 5.22756V72.8685C109 73.9897 108.526 75.065 107.682 75.8578C106.838 76.6506 105.693 77.096 104.5 77.096H28L8.39688 93.0075Z" fill="#D9D9D9" stroke="black" stroke-linecap="round" stroke-linejoin="round"/>
</svg>
