<svg width="24" height="24" viewBox="0 0 32 32" fill="none" xmlns="http://www.w3.org/2000/svg">
<g clip-path="url(#clip0_10_7)">
<path d="M23.8888 14.1113C26.8888 11.1113 27.0763 7.5425 26.9825 5.95125C26.9669 5.70873 26.8635 5.48018 26.6917 5.30834C26.5198 5.13649 26.2913 5.0331 26.0487 5.0175C24.4575 4.92375 20.8913 5.10875 17.8888 8.11125L10 16L16 22L23.8888 14.1113Z" stroke="black" stroke-width="2" stroke-linecap="round" stroke-linejoin="round"/>
<path d="M17 9H9.29377C9.0289 9.00012 8.77491 9.10532 8.58752 9.2925L4.29377 13.5863C4.16267 13.7176 4.07073 13.8829 4.02822 14.0636C3.98572 14.2442 3.99433 14.4332 4.0531 14.6092C4.11187 14.7853 4.21848 14.9415 4.36099 15.0604C4.5035 15.1793 4.67629 15.2562 4.86002 15.2825L10 16" stroke="black" stroke-width="2" stroke-linecap="round" stroke-linejoin="round"/>
<path d="M23 15V22.7062C22.9999 22.9711 22.8947 23.2251 22.7075 23.4125L18.4137 27.7062C18.2824 27.8373 18.1171 27.9293 17.9364 27.9718C17.7558 28.0143 17.5668 28.0057 17.3908 27.9469C17.2147 27.8881 17.0585 27.7815 16.9396 27.639C16.8207 27.4965 16.7438 27.3237 16.7175 27.14L16 22" stroke="black" stroke-width="2" stroke-linecap="round" stroke-linejoin="round"/>
<path d="M11.82 23.4775C11.3362 24.5387 9.70625 27 5 27C5 22.2937 7.46125 20.6637 8.5225 20.18" stroke="black" stroke-width="2" stroke-linecap="round" stroke-linejoin="round"/>
</g>
<defs>
<clipPath id="clip0_10_7">
<rect width="32" height="32" fill="white"/>
</clipPath>
</defs>
</svg>
