<svg viewBox="0 0 32 33" fill="#F6BD41" xmlns="http://www.w3.org/2000/svg">
<g clip-path="url(#clip0_96_2)">
<path d="M10.3429 6.32176C10.7589 5.13913 11.5349 4.11651 12.5619 3.39753C13.5889 2.67854 14.8154 2.29932 16.0689 2.31311C17.3225 2.3269 18.5403 2.73301 19.5513 3.47442C20.5622 4.21582 21.3155 5.25526 21.7054 6.44676L25.4329 16.9818C25.9679 18.4991 26.1288 20.1231 25.9021 21.7159C25.6754 23.3087 25.0678 24.8233 24.1307 26.1311C23.1937 27.4389 21.955 28.5013 20.5196 29.2281C19.0843 29.955 17.4948 30.3248 15.8861 30.3061C14.2774 30.2875 12.6969 29.881 11.2788 29.1211C9.86067 28.3612 8.64686 27.2704 7.74036 25.9413C6.83386 24.6121 6.26144 23.0838 6.07169 21.4862C5.88194 19.8886 6.08046 18.2688 6.65041 16.7643L10.3429 6.32176Z" stroke-linecap="round" stroke-linejoin="round"/>
</g>
<defs>
<clipPath id="clip0_96_2">
<rect width="32" height="32" fill="#F6BD41" transform="translate(0.00164795 0.321777)"/>
</clipPath>
</defs>
</svg>
