<svg width="45" height="192" viewBox="0 0 45 192" fill="none" xmlns="http://www.w3.org/2000/svg">
<circle cx="22.5" cy="22.5" r="22.5" fill="#0A1458"/>
<g clip-path="url(#clip0_65_2)">
<path d="M22.6893 24.1852C24.3462 24.1852 25.6893 22.8421 25.6893 21.1852C25.6893 19.5284 24.3462 18.1852 22.6893 18.1852C21.0325 18.1852 19.6893 19.5284 19.6893 21.1852C19.6893 22.8421 21.0325 24.1852 22.6893 24.1852Z" stroke="white" stroke-width="2" stroke-linecap="round" stroke-linejoin="round"/>
<path d="M23.1344 34.1852H22.2444C21.7944 34.1875 21.3564 34.0398 20.9996 33.7655C20.6429 33.4911 20.3877 33.1058 20.2744 32.6702L18.7506 26.6702C18.6778 26.373 18.6739 26.0632 18.7392 25.7642C18.8045 25.4653 18.9373 25.1853 19.1274 24.9455C19.3174 24.7057 19.5598 24.5126 19.8359 24.3808C20.1121 24.2491 20.4147 24.1822 20.7206 24.1852H24.6581C24.9641 24.1822 25.2667 24.2491 25.5428 24.3808C25.819 24.5126 26.0613 24.7057 26.2514 24.9455C26.4415 25.1853 26.5742 25.4653 26.6395 25.7642C26.7048 26.0632 26.7009 26.373 26.6281 26.6702L25.1044 32.6702C24.991 33.1058 24.7359 33.4911 24.3791 33.7655C24.0224 34.0398 23.5844 34.1875 23.1344 34.1852Z" stroke="white" stroke-width="2" stroke-linecap="round" stroke-linejoin="round"/>
<path d="M14.9806 24.3328C14.6509 23.1446 14.6003 21.8962 14.8328 20.6853C15.0654 19.4743 15.5747 18.3335 16.321 17.3519C17.0673 16.3703 18.0304 15.5745 19.1351 15.0267C20.2398 14.4788 21.4562 14.1938 22.6893 14.1938C23.9224 14.1938 25.1388 14.4788 26.2435 15.0267C27.3482 15.5745 28.3114 16.3703 29.0577 17.3519C29.804 18.3335 30.3133 19.4743 30.5458 20.6853C30.7783 21.8962 30.7278 23.1446 30.3981 24.3328" stroke="white" stroke-width="2" stroke-linecap="round" stroke-linejoin="round"/>
<path d="M16.0181 32.1615C13.8785 30.7306 12.2558 28.6496 11.3895 26.2258C10.5231 23.802 10.4591 21.1638 11.2068 18.7009C11.9545 16.2379 13.4744 14.0806 15.542 12.5475C17.6096 11.0145 20.1154 10.1868 22.6893 10.1868C25.2633 10.1868 27.7691 11.0145 29.8367 12.5475C31.9043 14.0806 33.4241 16.2379 34.1718 18.7009C34.9196 21.1638 34.8555 23.802 33.9892 26.2258C33.1229 28.6496 31.5001 30.7306 29.3606 32.1615" stroke="white" stroke-width="2" stroke-linecap="round" stroke-linejoin="round"/>
</g>
<line x1="23.5" y1="42.9966" x2="24.5" y2="191.997" stroke="black"/>
<defs>
<clipPath id="clip0_65_2">
<rect width="32" height="32" fill="white" transform="translate(6.68933 6.18524)"/>
</clipPath>
</defs>
</svg>
