<svg width="16" height="17" viewBox="0 0 16 17" fill="none" xmlns="http://www.w3.org/2000/svg">
<g clip-path="url(#clip0_21_192)">
<path d="M9.98872 10.4888L8.46747 14.6725C8.43195 14.7682 8.368 14.8507 8.28421 14.909C8.20041 14.9673 8.10079 14.9985 7.99872 14.9985C7.89665 14.9985 7.79703 14.9673 7.71324 14.909C7.62944 14.8507 7.56549 14.7682 7.52997 14.6725L6.01122 10.4888L1.82747 8.9675C1.73178 8.93198 1.64926 8.86803 1.59098 8.78424C1.5327 8.70044 1.50146 8.60082 1.50146 8.49875C1.50146 8.39669 1.5327 8.29706 1.59098 8.21327C1.64926 8.12947 1.73178 8.06552 1.82747 8.03L6.01122 6.51125L7.53247 2.3275C7.56799 2.23181 7.63194 2.14929 7.71574 2.09101C7.79953 2.03273 7.89915 2.0015 8.00122 2.0015C8.10329 2.0015 8.20291 2.03273 8.28671 2.09101C8.3705 2.14929 8.43445 2.23181 8.46997 2.3275L9.99122 6.51125L14.175 8.0325C14.2707 8.06802 14.3532 8.13197 14.4115 8.21577C14.4697 8.29956 14.501 8.39919 14.501 8.50125C14.501 8.60332 14.4697 8.70294 14.4115 8.78674C14.3532 8.87053 14.2707 8.93449 14.175 8.97L9.98872 10.4888Z" stroke="white" stroke-width="2" stroke-linecap="round" stroke-linejoin="round"/>
</g>
<defs>
<clipPath id="clip0_21_192">
<rect width="16" height="16" fill="white" transform="translate(0 0.5)"/>
</clipPath>
</defs>
</svg>
